<svg id="visual" viewBox="0 0 900 600" width="900" height="600" xmlns="http://www.w3.org/2000/svg" xmlns:xlink="http://www.w3.org/1999/xlink" version="1.1"><g stroke-width="1" stroke-linejoin="bevel"><path d="M408 275L503 279L497 213Z" fill="#0c2435" stroke="#0c2435"></path><path d="M497 213L426 170L408 275Z" fill="#236688" stroke="#236688"></path><path d="M408 275L417 384L503 279Z" fill="#112e42" stroke="#112e42"></path><path d="M479 399L574 330L503 279Z" fill="#1d4e6b" stroke="#1d4e6b"></path><path d="M503 279L610 222L497 213Z" fill="#00101c" stroke="#00101c"></path><path d="M417 384L479 399L503 279Z" fill="#19435d" stroke="#19435d"></path><path d="M426 170L307 283L408 275Z" fill="#1d4e6b" stroke="#1d4e6b"></path><path d="M408 275L330 369L417 384Z" fill="#00101c" stroke="#00101c"></path><path d="M574 330L610 222L503 279Z" fill="#205a7a" stroke="#205a7a"></path><path d="M502 93L418 97L426 170Z" fill="#081a28" stroke="#081a28"></path><path d="M502 93L426 170L497 213Z" fill="#205a7a" stroke="#205a7a"></path><path d="M426 170L275 174L307 283Z" fill="#15384f" stroke="#15384f"></path><path d="M587 110L502 93L497 213Z" fill="#00101c" stroke="#00101c"></path><path d="M307 283L330 369L408 275Z" fill="#15384f" stroke="#15384f"></path><path d="M417 384L417 503L479 399Z" fill="#15384f" stroke="#15384f"></path><path d="M610 222L587 110L497 213Z" fill="#236688" stroke="#236688"></path><path d="M479 399L600 377L574 330Z" fill="#287ea6" stroke="#287ea6"></path><path d="M722 277L698 216L610 222Z" fill="#0c2435" stroke="#0c2435"></path><path d="M313 107L275 174L426 170Z" fill="#0c2435" stroke="#0c2435"></path><path d="M307 283L220 313L330 369Z" fill="#15384f" stroke="#15384f"></path><path d="M418 97L313 107L426 170Z" fill="#00101c" stroke="#00101c"></path><path d="M226 103L230 196L275 174Z" fill="#236688" stroke="#236688"></path><path d="M275 174L230 196L307 283Z" fill="#267297" stroke="#267297"></path><path d="M722 277L610 222L574 330Z" fill="#081a28" stroke="#081a28"></path><path d="M610 222L698 216L587 110Z" fill="#081a28" stroke="#081a28"></path><path d="M230 196L220 313L307 283Z" fill="#236688" stroke="#236688"></path><path d="M418 97L422 0L313 107Z" fill="#0c2435" stroke="#0c2435"></path><path d="M502 93L422 0L418 97Z" fill="#081a28" stroke="#081a28"></path><path d="M528 0L422 0L502 93Z" fill="#1d4e6b" stroke="#1d4e6b"></path><path d="M277 501L417 503L330 369Z" fill="#205a7a" stroke="#205a7a"></path><path d="M330 369L417 503L417 384Z" fill="#267297" stroke="#267297"></path><path d="M479 399L569 495L600 377Z" fill="#081a28" stroke="#081a28"></path><path d="M620 0L528 0L587 110Z" fill="#00101c" stroke="#00101c"></path><path d="M587 110L528 0L502 93Z" fill="#00101c" stroke="#00101c"></path><path d="M600 377L722 277L574 330Z" fill="#15384f" stroke="#15384f"></path><path d="M522 521L569 495L479 399Z" fill="#287ea6" stroke="#287ea6"></path><path d="M600 377L715 378L722 277Z" fill="#236688" stroke="#236688"></path><path d="M313 107L226 103L275 174Z" fill="#205a7a" stroke="#205a7a"></path><path d="M128 312L199 393L220 313Z" fill="#287ea6" stroke="#287ea6"></path><path d="M288 0L226 103L313 107Z" fill="#0c2435" stroke="#0c2435"></path><path d="M417 503L522 521L479 399Z" fill="#267297" stroke="#267297"></path><path d="M716 479L715 378L600 377Z" fill="#287ea6" stroke="#287ea6"></path><path d="M128 312L220 313L230 196Z" fill="#081a28" stroke="#081a28"></path><path d="M220 313L199 393L330 369Z" fill="#0c2435" stroke="#0c2435"></path><path d="M819 216L719 111L698 216Z" fill="#1d4e6b" stroke="#1d4e6b"></path><path d="M698 216L719 111L587 110Z" fill="#00101c" stroke="#00101c"></path><path d="M680 0L620 0L587 110Z" fill="#15384f" stroke="#15384f"></path><path d="M422 0L288 0L313 107Z" fill="#00101c" stroke="#00101c"></path><path d="M199 393L277 501L330 369Z" fill="#205a7a" stroke="#205a7a"></path><path d="M417 503L420 600L522 521Z" fill="#0c2435" stroke="#0c2435"></path><path d="M78 229L128 312L230 196Z" fill="#112e42" stroke="#112e42"></path><path d="M189 522L318 600L277 501Z" fill="#112e42" stroke="#112e42"></path><path d="M719 111L680 0L587 110Z" fill="#00101c" stroke="#00101c"></path><path d="M569 495L716 479L600 377Z" fill="#287ea6" stroke="#287ea6"></path><path d="M715 378L799 314L722 277Z" fill="#1d4e6b" stroke="#1d4e6b"></path><path d="M610 600L716 479L569 495Z" fill="#267297" stroke="#267297"></path><path d="M789 417L799 314L715 378Z" fill="#19435d" stroke="#19435d"></path><path d="M722 277L819 216L698 216Z" fill="#236688" stroke="#236688"></path><path d="M719 111L771 0L680 0Z" fill="#00101c" stroke="#00101c"></path><path d="M318 600L420 600L417 503Z" fill="#0c2435" stroke="#0c2435"></path><path d="M522 521L610 600L569 495Z" fill="#15384f" stroke="#15384f"></path><path d="M420 600L517 600L522 521Z" fill="#00101c" stroke="#00101c"></path><path d="M799 314L819 216L722 277Z" fill="#00101c" stroke="#00101c"></path><path d="M716 479L789 417L715 378Z" fill="#205a7a" stroke="#205a7a"></path><path d="M799 314L900 270L819 216Z" fill="#15384f" stroke="#15384f"></path><path d="M288 0L180 0L226 103Z" fill="#15384f" stroke="#15384f"></path><path d="M88 115L78 229L230 196Z" fill="#287ea6" stroke="#287ea6"></path><path d="M189 522L277 501L199 393Z" fill="#205a7a" stroke="#205a7a"></path><path d="M277 501L318 600L417 503Z" fill="#1d4e6b" stroke="#1d4e6b"></path><path d="M88 115L230 196L226 103Z" fill="#0c2435" stroke="#0c2435"></path><path d="M123 515L189 522L199 393Z" fill="#112e42" stroke="#112e42"></path><path d="M78 382L199 393L128 312Z" fill="#112e42" stroke="#112e42"></path><path d="M517 600L610 600L522 521Z" fill="#00101c" stroke="#00101c"></path><path d="M716 479L800 484L789 417Z" fill="#267297" stroke="#267297"></path><path d="M180 0L88 115L226 103Z" fill="#112e42" stroke="#112e42"></path><path d="M0 294L78 382L128 312Z" fill="#15384f" stroke="#15384f"></path><path d="M828 81L771 0L719 111Z" fill="#1d4e6b" stroke="#1d4e6b"></path><path d="M819 216L828 81L719 111Z" fill="#19435d" stroke="#19435d"></path><path d="M708 600L800 484L716 479Z" fill="#267297" stroke="#267297"></path><path d="M900 408L900 270L799 314Z" fill="#236688" stroke="#236688"></path><path d="M78 382L123 515L199 393Z" fill="#1d4e6b" stroke="#1d4e6b"></path><path d="M189 522L171 600L318 600Z" fill="#236688" stroke="#236688"></path><path d="M610 600L708 600L716 479Z" fill="#15384f" stroke="#15384f"></path><path d="M0 120L0 227L78 229Z" fill="#0c2435" stroke="#0c2435"></path><path d="M180 0L94 0L88 115Z" fill="#0c2435" stroke="#0c2435"></path><path d="M900 408L799 314L789 417Z" fill="#205a7a" stroke="#205a7a"></path><path d="M819 216L900 122L828 81Z" fill="#081a28" stroke="#081a28"></path><path d="M900 270L900 226L819 216Z" fill="#0c2435" stroke="#0c2435"></path><path d="M123 515L171 600L189 522Z" fill="#15384f" stroke="#15384f"></path><path d="M0 120L78 229L88 115Z" fill="#0c2435" stroke="#0c2435"></path><path d="M78 229L0 294L128 312Z" fill="#205a7a" stroke="#205a7a"></path><path d="M78 382L0 496L123 515Z" fill="#287ea6" stroke="#287ea6"></path><path d="M0 227L0 294L78 229Z" fill="#112e42" stroke="#112e42"></path><path d="M900 226L900 122L819 216Z" fill="#0c2435" stroke="#0c2435"></path><path d="M828 81L900 0L771 0Z" fill="#236688" stroke="#236688"></path><path d="M900 517L900 408L800 484Z" fill="#00101c" stroke="#00101c"></path><path d="M800 484L900 408L789 417Z" fill="#1d4e6b" stroke="#1d4e6b"></path><path d="M0 0L0 120L88 115Z" fill="#19435d" stroke="#19435d"></path><path d="M0 294L0 408L78 382Z" fill="#205a7a" stroke="#205a7a"></path><path d="M123 515L114 600L171 600Z" fill="#205a7a" stroke="#205a7a"></path><path d="M0 600L114 600L123 515Z" fill="#1d4e6b" stroke="#1d4e6b"></path><path d="M708 600L815 600L800 484Z" fill="#0c2435" stroke="#0c2435"></path><path d="M900 122L900 0L828 81Z" fill="#0c2435" stroke="#0c2435"></path><path d="M815 600L900 517L800 484Z" fill="#19435d" stroke="#19435d"></path><path d="M0 408L0 496L78 382Z" fill="#15384f" stroke="#15384f"></path><path d="M94 0L0 0L88 115Z" fill="#15384f" stroke="#15384f"></path><path d="M815 600L900 600L900 517Z" fill="#081a28" stroke="#081a28"></path><path d="M0 496L0 600L123 515Z" fill="#081a28" stroke="#081a28"></path></g></svg>